<svg width="83" height="64" viewBox="0 0 83 64" fill="none" xmlns="http://www.w3.org/2000/svg">
<path d="M38.4572 59.6099L24.2999 30.6895L0 44.8406L24.7648 59.3541L38.4572 59.6099Z" fill="black"/>
<path d="M38.3725 31.4568L13.6289 16.9434L13.6923 45.0965L38.4571 59.61L38.3725 31.4568Z" fill="#805100"/>
<path d="M62.6724 17.3055L37.9077 2.79199L13.6289 16.9432L38.3725 31.4567L62.6724 17.3055Z" fill="#FFECCC"/>
<path d="M38.3726 31.4569L38.4571 59.61L62.6725 45.4588V17.3057L38.3726 31.4569Z" fill="#FFA100"/>
<path opacity="0.3" d="M38.3726 40.2164L13.6924 25.6816" stroke="black" stroke-width="2.9365" stroke-miterlimit="10"/>
<path opacity="0.3" d="M62.6725 26.0645L38.3726 40.2156" stroke="black" stroke-width="2.9365" stroke-miterlimit="10"/>
<path d="M53.8401 22.4414L53.9035 50.5946L49.6563 53.0881L49.5718 24.9136L53.8401 22.4414Z" fill="#A3291D"/>
<path d="M29.0542 7.92871L53.819 22.4422V22.4635L53.8401 22.4422L49.5718 24.9144L24.8281 10.4222L29.0542 7.92871Z" fill="#F2606A"/>
<path d="M46.6979 7.94922L50.924 10.4214L26.6875 24.6152L22.4614 22.1643V22.143L46.6979 7.94922Z" fill="#F2606A"/>
<path d="M22.4405 22.1436L22.4616 22.1649L26.6877 24.6157L26.6032 52.6624L22.356 50.1689L22.4405 22.1436Z" fill="#A3291D"/>
<path d="M38.7741 13.5332L46.3176 26.8958L42.0704 29.3893L34.5269 16.0054L38.7741 13.5332Z" fill="#F2606A"/>
<path d="M35.8792 14.3857L40.1053 16.8579L36.175 25.1057L30.9136 24.509L35.8792 14.3857Z" fill="#F2606A"/>
<path d="M45.4938 4.88087C45.5784 4.2202 45.5361 3.58083 45.3882 3.02672C47.0575 2.47261 48.283 3.13328 48.8536 4.39069C47.7548 4.53988 46.5504 4.73168 45.4938 4.88087Z" fill="#B52626"/>
<path d="M38.9644 16.7086C36.9571 18.0087 35.1821 19.5218 30.2799 20.8219C25.3776 22.1219 22.7786 19.671 21.6376 18.3284C20.4965 16.9644 20.3697 13.8741 26.1383 13.6397C32.245 13.384 34.1467 14.7266 37.9713 15.302C37.9713 15.302 36.9993 14.684 35.8583 14.002C34.7172 13.32 33.4283 7.37398 36.7458 6.75593C40.0632 6.13788 45.4937 8.58876 45.2824 11.0396C45.0711 13.4692 38.9644 16.7086 38.9644 16.7086Z" fill="black"/>
<path d="M47.3321 2.9626C46.5503 2.70686 45.5571 2.83473 44.4161 3.47409C40.6126 5.58398 40.7817 10.2513 40.7183 13.4481C40.6972 14.8547 40.6126 15.9842 40.1266 16.4744C40.1266 16.4744 39.9999 16.581 39.8942 16.6662L35.7949 13.5547C36.45 12.894 36.3654 11.1038 36.4288 8.9939C36.5134 5.98891 36.8726 2.34455 40.1055 0.554342C41.9439 -0.468635 43.0849 0.149414 44.1625 0.85271C44.8387 1.27895 46.6559 2.49374 47.3321 2.9626Z" fill="#F2606A"/>
<path d="M40.1056 16.4532C40.1056 16.4532 40 16.6237 39.7464 16.8155L38.9646 17.0712L35.7739 13.5334C36.429 12.8728 36.3444 11.0825 36.4078 8.97266C36.429 9.0579 36.4501 9.16447 36.4501 9.24971C36.429 13.0433 40.6973 14.5777 40.6973 14.5777C40.6973 14.5777 40.5916 15.9843 40.1056 16.4532Z" fill="#CE3434"/>
<path d="M44.7328 13.6826C37.8232 18.286 40.1053 16.4531 40.1053 16.4531C40.7814 15.7924 40.6758 13.9383 40.7392 11.7645C40.8237 11.7005 40.9293 11.6366 41.0139 11.5727C43.8876 9.65459 45.2611 7.05452 45.4935 4.85938C45.578 4.19871 45.5357 3.55935 45.3878 3.00524C47.0571 2.45113 48.2827 3.1118 48.8532 4.36921C49.9097 6.67091 48.8955 10.912 44.7328 13.6826Z" fill="#CE3434"/>
<path d="M40.2956 16.3677C38.3516 16.3464 36.9992 7.94946 31.611 8.09864C33.724 10.5495 34.7594 14.2365 36.0484 14.2365C36.0484 14.2365 37.612 14.066 29.9628 17.0071C28.7373 17.4759 27.6385 17.6891 26.6665 17.6891C27.9343 19.5858 30.4488 20.5875 34.2312 19.1383C41.8804 16.1972 40.2956 16.3677 40.2956 16.3677Z" fill="#CE3434"/>
<path d="M33.6605 8.48244C32.6251 8.01358 31.3996 7.90702 29.9205 8.37588C28.4202 8.84475 27.3214 9.80379 26.6241 10.9973C25.1027 13.5547 25.4831 17.0925 27.7018 18.8188C26.6241 18.222 24.7013 17.0925 24.3632 16.7728C22.4826 15.0465 22.1656 11.9137 23.4334 9.52673C24.1096 8.20539 25.2718 7.11848 26.8988 6.60699C28.1455 6.22337 29.2232 6.22337 30.1318 6.52174C30.7234 6.69224 32.6251 7.8644 33.6605 8.48244Z" fill="#F2606A"/>
<path d="M40.2959 16.3677C38.3519 16.3464 36.9996 7.94946 31.6113 8.09864C33.7244 10.5495 34.7597 14.2365 36.0487 14.2365C36.0487 14.2365 37.0841 14.1086 33.3651 15.6644L40.0423 16.7087C40.7396 16.3251 40.2959 16.3677 40.2959 16.3677Z" fill="#B52626"/>
<path d="M46.3175 40.2378V26.8965L42.0703 29.39V42.71L46.3175 40.2378Z" fill="#A3291D"/>
<path d="M60.8342 63.8929H52.53L42.1973 57.3501L50.2057 52.5762L60.8342 63.8929Z" fill="black"/>
<path d="M64.9124 47.717L60.9188 63.9993L49.5718 57.35V43.3906L64.9124 47.717Z" fill="#71A3B0"/>
<path d="M61.0244 59.3744V60.5466L49.5718 53.8333V52.6611L61.0244 59.3744Z" fill="black"/>
<path d="M60.9609 50.0189L82.9999 37.1465L82.9576 51.1059L60.9609 63.9996V50.0189Z" fill="#96DAEA"/>
<path d="M60.9609 59.3539L82.9999 46.4814L82.9576 47.6536L60.9609 60.5474V59.3539Z" fill="black"/>
<path d="M49.5718 43.391L71.6107 30.5186L83 37.1466L60.961 50.0191L49.5718 43.391Z" fill="#EAF8FB"/>
<path d="M53.7132 45.7988L53.6709 59.7795L55.6783 60.9304L55.6994 46.971" fill="#A3291D"/>
<path d="M55.6996 46.9714L77.7386 34.0776L75.7523 32.9268L53.7134 45.7992" fill="#F2606A"/>
<path d="M73.7662 42.4961H73.745L71.7588 43.6469L71.801 57.6276L73.7873 56.4768L73.7662 42.4961Z" fill="#A3291D"/>
<path d="M62.3979 35.8896L60.4116 37.0618L71.7586 43.6472L73.7871 42.5177L62.3979 35.8896Z" fill="#F2606A"/>
<path d="M66.8141 40.4066C65.6519 41.1738 64.6165 42.0476 61.7639 42.7936C58.9113 43.5608 57.4111 42.1329 56.7349 41.3443C56.0799 40.5558 55.9953 38.7656 59.3551 38.6164C62.905 38.4672 64.0037 39.2558 66.2436 39.5968C66.2436 39.5968 65.673 39.2344 65.018 38.8295C64.363 38.4459 63.6023 34.972 65.5251 34.6097C67.448 34.2474 70.5964 35.6753 70.4908 37.1032C70.364 38.5098 66.8141 40.4066 66.8141 40.4066Z" fill="black"/>
<path d="M71.6739 32.3936C71.2302 32.2444 70.6385 32.3083 69.9835 32.6919C67.7859 33.9067 67.8704 36.6347 67.8282 38.4888C67.8071 39.32 67.7648 39.9593 67.4901 40.2577C67.4901 40.2577 67.4267 40.3217 67.3633 40.3643L64.9756 38.5528C65.3559 38.1691 65.3137 37.1248 65.3348 35.8887C65.3771 34.1412 65.5884 32.0313 67.469 30.987C68.5466 30.3902 69.2017 30.7526 69.8356 31.1575C70.2159 31.4345 71.2724 32.1378 71.6739 32.3936Z" fill="#F2606A"/>
<path d="M67.4691 40.2578C67.4691 40.2578 67.4057 40.3644 67.2578 40.4709L66.8141 40.6201L64.9546 38.5742C65.3349 38.1905 65.2927 37.1463 65.3138 35.9102C65.3138 35.9528 65.3349 36.0167 65.3349 36.0807C65.3138 38.2971 67.8072 39.1709 67.8072 39.1709C67.8072 39.1709 67.7438 39.9594 67.4691 40.2578Z" fill="#CE3434"/>
<path d="M70.1525 38.6377C66.1378 41.3017 67.469 40.2574 67.469 40.2574C67.8493 39.8738 67.8071 38.7869 67.8282 37.5295C67.8916 37.4869 67.9338 37.4656 67.9972 37.4229C69.6665 36.3147 70.4695 34.8016 70.5963 33.5228C70.6385 33.1392 70.6174 32.7769 70.5329 32.4359C71.5049 32.1162 72.2233 32.4999 72.5403 33.2245C73.1742 34.5671 72.5825 37.018 70.1525 38.6377Z" fill="#CE3434"/>
<path d="M67.5748 40.1936C66.4549 40.1723 65.6519 35.2918 62.5246 35.3771C63.7502 36.805 64.363 38.9362 65.1025 38.9575C65.1025 38.9575 66.0111 38.8509 61.5737 40.5772C60.8553 40.8543 60.2214 40.9821 59.6509 40.9821C60.3904 42.0904 61.8484 42.6658 64.046 41.8133C68.5045 40.087 67.5748 40.1936 67.5748 40.1936Z" fill="#CE3434"/>
<path d="M63.7289 35.6115C63.1161 35.3344 62.4188 35.2705 61.5525 35.5475C60.6861 35.8246 60.0522 36.3787 59.6296 37.0607C58.7421 38.5525 58.9534 40.5985 60.2635 41.6001C59.6507 41.2378 58.5097 40.5985 58.3195 40.4067C57.2419 39.405 57.0517 37.5722 57.7701 36.1869C58.1716 35.4197 58.8478 34.7803 59.7775 34.4819C60.4959 34.2475 61.1299 34.2688 61.6581 34.418C62.0173 34.5885 63.1161 35.2492 63.7289 35.6115Z" fill="#F2606A"/>
<path d="M67.5746 40.1936C66.4547 40.1723 65.6517 35.2918 62.5244 35.3771C63.75 36.805 64.3628 38.9362 65.1023 38.9575C65.1023 38.9575 65.7151 38.8936 63.5387 39.7887L67.4267 40.3854C67.8281 40.1723 67.5746 40.1936 67.5746 40.1936Z" fill="#B52626"/>
</svg>
